<svg xmlns="http://www.w3.org/2000/svg" width="564.01" height="257.146" viewBox="0 0 564.01 257.146">
  <g id="Group_1898" data-name="Group 1898" transform="translate(-13.667 -314.773)">
    <g id="Group_1815" data-name="Group 1815" transform="translate(13.667 344.539)">
      <path id="Path_1031" data-name="Path 1031" d="M76.554,326.806H523.8a22.734,22.734,0,0,1,22.734,22.734h0A22.733,22.733,0,0,1,523.8,372.271H472.593a24.657,24.657,0,0,0-24.656,24.658h0a24.656,24.656,0,0,0,24.656,24.656h77.212a27.872,27.872,0,0,1,27.871,27.871h0a27.872,27.872,0,0,1-27.871,27.871H514.9a75.4,75.4,0,0,0-75.4,75.4H172.139a46.345,46.345,0,0,0-45.749-46.34l-82.12-1.051a31,31,0,0,1-30.6-31h0a31,31,0,0,1,31-31H70.877a39.307,39.307,0,0,1,38.781-39.3l41.23-.554a15.6,15.6,0,0,0,15.394-15.6h0a15.605,15.605,0,0,0-15.6-15.6H76.554A22.731,22.731,0,0,1,53.821,349.54h0A22.732,22.732,0,0,1,76.554,326.806Z" transform="translate(-13.667 -326.806)" fill="#f5f5f5"/>
    </g>
    <g id="Group_1825" data-name="Group 1825" transform="translate(83.74 401.267)">
      <g id="Group_1816" data-name="Group 1816" transform="translate(2.272 1.857)">
        <path id="Rectangle_10575" data-name="Rectangle 10575" d="M4.229,0H188.4a4.229,4.229,0,0,1,4.229,4.229V112.322a2.255,2.255,0,0,1-2.255,2.255H2.255A2.255,2.255,0,0,1,0,112.322V4.229A4.229,4.229,0,0,1,4.229,0Z" fill="#17ac9d"/>
      </g>
      <g id="Group_1817" data-name="Group 1817" transform="translate(0)">
        <path id="Path_1032" data-name="Path 1032" d="M45.7,462.933H41.994V359.061a9.333,9.333,0,0,1,9.321-9.323H74.994v3.711H51.315a5.618,5.618,0,0,0-5.61,5.613Z" transform="translate(-41.994 -349.738)" fill="#283e51"/>
      </g>
      <g id="Group_1818" data-name="Group 1818" transform="translate(12.725 13.06)">
        <rect id="Rectangle_10576" data-name="Rectangle 10576" width="171.939" height="90.497" fill="#fff"/>
      </g>
      <g id="Group_1819" data-name="Group 1819" transform="translate(69.57 133.799)">
        <rect id="Rectangle_10577" data-name="Rectangle 10577" width="58.035" height="34.355" fill="#f5f5f5"/>
      </g>
      <g id="Group_1820" data-name="Group 1820" transform="translate(69.57 133.799)">
        <rect id="Rectangle_10578" data-name="Rectangle 10578" width="58.035" height="17.178" fill="#f5f5f5"/>
      </g>
      <g id="Group_1821" data-name="Group 1821" transform="translate(67.713 131.944)">
        <path id="Path_1033" data-name="Path 1033" d="M131.114,441.142H69.367V403.076h61.747Zm-58.036-3.711H127.4V406.787H73.078Z" transform="translate(-69.367 -403.076)" fill="#283e51"/>
      </g>
      <g id="Group_1822" data-name="Group 1822" transform="translate(2.272 112.227)">
        <path id="Rectangle_10579" data-name="Rectangle 10579" d="M0,0H192.63a0,0,0,0,1,0,0V18.84a7.174,7.174,0,0,1-7.174,7.174H7.174A7.174,7.174,0,0,1,0,18.84V0A0,0,0,0,1,0,0Z" fill="#fff"/>
      </g>
      <g id="Group_1823" data-name="Group 1823" transform="translate(0.418 110.37)">
        <path id="Path_1034" data-name="Path 1034" d="M158.265,424.079H56.684a14.538,14.538,0,0,1-14.521-14.521v-15.2H158.572v3.711H45.874v11.493a10.821,10.821,0,0,0,10.81,10.81H158.265Z" transform="translate(-42.163 -394.355)" fill="#283e51"/>
      </g>
      <g id="Group_1824" data-name="Group 1824" transform="translate(58.286 166.941)">
        <rect id="Rectangle_10580" data-name="Rectangle 10580" width="81.359" height="3.711" fill="#283e51"/>
      </g>
      <rect id="Rectangle_10603" data-name="Rectangle 10603" width="117.228" height="36.626" transform="translate(246.969 19.737)" fill="#f5f5f5"/>
      <g id="Group_1899" data-name="Group 1899" transform="translate(289.176 67.62)">
        <rect id="Rectangle_10586" data-name="Rectangle 10586" width="29.655" height="23.996" fill="#f5f5f5"/>
      </g>
      <g id="Group_1900" data-name="Group 1900" transform="translate(334.542 67.62)">
        <rect id="Rectangle_10587" data-name="Rectangle 10587" width="29.655" height="23.996" fill="#f5f5f5"/>
      </g>
      <g id="Group_1903" data-name="Group 1903" transform="translate(-4295.962 2453.701)">
        <rect id="Rectangle_10604" data-name="Rectangle 10604" width="117.228" height="36.626" transform="translate(4316.931 -2433.964)" fill="#f5f5f5"/>
        <rect id="Rectangle_10586-2" data-name="Rectangle 10586" width="29.655" height="23.996" transform="translate(4317.139 -2386.081)" fill="#f5f5f5"/>
        <g id="Group_1902" data-name="Group 1902" transform="translate(4362.505 -2386.081)">
          <rect id="Rectangle_10587-2" data-name="Rectangle 10587" width="29.655" height="23.996" fill="#f5f5f5"/>
        </g>
      </g>
    </g>
    <g id="Group_1843" data-name="Group 1843" transform="translate(311.234 382.227)">
      <g id="Group_1833" data-name="Group 1833" transform="translate(0 1.855)">
        <path id="Path_1041" data-name="Path 1041" d="M290.137,529.167V352.1a9.307,9.307,0,0,0-9.309-9.306H143.267a9.309,9.309,0,0,0-9.309,9.306V529.167Z" transform="translate(-133.958 -342.791)" fill="#fff"/>
      </g>
      <g id="Group_1834" data-name="Group 1834" transform="translate(0 1.855)">
        <path id="Path_1042" data-name="Path 1042" d="M133.958,366.917v-16.3a7.825,7.825,0,0,1,7.827-7.827H282.31a7.827,7.827,0,0,1,7.827,7.827v16.3Z" transform="translate(-133.958 -342.791)" fill="#17ac9d"/>
      </g>
      <g id="Group_1835" data-name="Group 1835" transform="translate(11.171)">
        <path id="Path_1043" data-name="Path 1043" d="M285.337,530.272h-3.711V351.723a5.979,5.979,0,0,0-5.972-5.972H138.474v-3.711H275.655a9.694,9.694,0,0,1,9.682,9.682Z" transform="translate(-138.474 -342.041)" fill="#283e51"/>
      </g>
      <g id="Group_1836" data-name="Group 1836" transform="translate(0 24.549)">
        <rect id="Rectangle_10581" data-name="Rectangle 10581" width="156.178" height="3.711" fill="#283e51"/>
      </g>
      <g id="Group_1837" data-name="Group 1837" transform="translate(17.936 13.391)">
        <rect id="Rectangle_10582" data-name="Rectangle 10582" width="6.25" height="3.711" fill="#283e51"/>
      </g>
      <g id="Group_1838" data-name="Group 1838" transform="translate(32.402 13.391)">
        <rect id="Rectangle_10583" data-name="Rectangle 10583" width="6.25" height="3.711" fill="#283e51"/>
      </g>
      <g id="Group_1839" data-name="Group 1839" transform="translate(46.87 13.391)">
        <rect id="Rectangle_10584" data-name="Rectangle 10584" width="6.248" height="3.711" fill="#283e51"/>
      </g>
      <g id="Group_1840" data-name="Group 1840" transform="translate(19.475 38.777)">
        <rect id="Rectangle_10585" data-name="Rectangle 10585" width="117.228" height="36.626" fill="#f5f5f5"/>
      </g>
      <g id="Group_1841" data-name="Group 1841" transform="translate(61.682 86.66)">
        <rect id="Rectangle_10586-3" data-name="Rectangle 10586" width="29.655" height="23.996" fill="#f5f5f5"/>
      </g>
      <g id="Group_1842" data-name="Group 1842" transform="translate(107.049 86.66)">
        <rect id="Rectangle_10587-3" data-name="Rectangle 10587" width="29.655" height="23.996" fill="#f5f5f5"/>
      </g>
    </g>
    <g id="Group_1846" data-name="Group 1846" transform="translate(409.228 355.345)">
      <g id="Group_1844" data-name="Group 1844" transform="translate(0 5.286)">
        <path id="Path_1044" data-name="Path 1044" d="M186,337.022H175.427a1.855,1.855,0,0,1,0-3.711H186a1.855,1.855,0,1,1,0,3.711Z" transform="translate(-173.572 -333.311)" fill="#283e51"/>
      </g>
      <g id="Group_1845" data-name="Group 1845" transform="translate(5.286)">
        <path id="Path_1045" data-name="Path 1045" d="M177.564,345.457a1.856,1.856,0,0,1-1.855-1.855V333.029a1.855,1.855,0,1,1,3.711,0V343.6A1.856,1.856,0,0,1,177.564,345.457Z" transform="translate(-175.709 -331.174)" fill="#283e51"/>
      </g>
    </g>
    <g id="Group_1849" data-name="Group 1849" transform="translate(38.325 412.141)">
      <g id="Group_1847" data-name="Group 1847" transform="translate(0 5.286)">
        <path id="Path_1046" data-name="Path 1046" d="M36.063,359.982H25.49a1.855,1.855,0,0,1,0-3.711H36.063a1.855,1.855,0,0,1,0,3.711Z" transform="translate(-23.635 -356.271)" fill="#283e51"/>
      </g>
      <g id="Group_1848" data-name="Group 1848" transform="translate(5.284)">
        <path id="Path_1047" data-name="Path 1047" d="M27.626,368.417a1.856,1.856,0,0,1-1.855-1.855V355.989a1.855,1.855,0,0,1,3.711,0v10.573A1.856,1.856,0,0,1,27.626,368.417Z" transform="translate(-25.771 -354.134)" fill="#283e51"/>
      </g>
    </g>
    <g id="Group_1852" data-name="Group 1852" transform="translate(239.413 328.295)">
      <g id="Group_1850" data-name="Group 1850">
        <path id="Path_1048" data-name="Path 1048" d="M106.779,331.425a1.857,1.857,0,0,1-1.311-3.169l7.476-7.473a1.856,1.856,0,1,1,2.625,2.625l-7.476,7.473A1.85,1.85,0,0,1,106.779,331.425Z" transform="translate(-104.924 -320.239)" fill="#283e51"/>
      </g>
      <g id="Group_1851" data-name="Group 1851">
        <path id="Path_1049" data-name="Path 1049" d="M114.257,331.425a1.85,1.85,0,0,1-1.314-.544l-7.476-7.473a1.856,1.856,0,1,1,2.625-2.625l7.476,7.473a1.857,1.857,0,0,1-1.311,3.169Z" transform="translate(-104.924 -320.239)" fill="#283e51"/>
      </g>
    </g>
    <g id="Group_1855" data-name="Group 1855" transform="translate(540.943 458.505)">
      <g id="Group_1853" data-name="Group 1853">
        <path id="Path_1050" data-name="Path 1050" d="M228.672,384.062a1.854,1.854,0,0,1-1.311-3.166l7.478-7.476a1.854,1.854,0,1,1,2.622,2.622l-7.476,7.478A1.858,1.858,0,0,1,228.672,384.062Z" transform="translate(-226.817 -372.876)" fill="#283e51"/>
      </g>
      <g id="Group_1854" data-name="Group 1854">
        <path id="Path_1051" data-name="Path 1051" d="M236.15,384.062a1.848,1.848,0,0,1-1.311-.542l-7.478-7.478a1.855,1.855,0,0,1,2.625-2.622l7.476,7.476a1.854,1.854,0,0,1-1.311,3.166Z" transform="translate(-226.817 -372.876)" fill="#283e51"/>
      </g>
    </g>
    <g id="Group_1856" data-name="Group 1856" transform="translate(348.591 360.632)">
      <rect id="Rectangle_10588" data-name="Rectangle 10588" width="43.032" height="3.711" fill="#283e51"/>
    </g>
    <g id="Group_1857" data-name="Group 1857" transform="translate(483.49 461.903)">
      <rect id="Rectangle_10589" data-name="Rectangle 10589" width="43.032" height="3.711" fill="#283e51"/>
    </g>
    <g id="Group_1858" data-name="Group 1858" transform="translate(255.34 332.032)">
      <rect id="Rectangle_10590" data-name="Rectangle 10590" width="94.98" height="3.711" fill="#283e51"/>
    </g>
    <g id="Group_1859" data-name="Group 1859" transform="translate(50.752 388.15)">
      <rect id="Rectangle_10591" data-name="Rectangle 10591" width="63.037" height="3.711" fill="#283e51"/>
    </g>
    <g id="Group_1860" data-name="Group 1860" transform="translate(395.334 360.632)">
      <rect id="Rectangle_10592" data-name="Rectangle 10592" width="8.832" height="3.711" fill="#283e51"/>
    </g>
    <g id="Group_1861" data-name="Group 1861" transform="translate(483.141 512.206)">
      <path id="Path_1052" data-name="Path 1052" d="M212,398.857a4.273,4.273,0,1,1-4.275-4.272A4.276,4.276,0,0,1,212,398.857Z" transform="translate(-203.451 -394.585)" fill="#283e51"/>
    </g>
    <g id="Group_1862" data-name="Group 1862" transform="translate(378.391 314.773)">
      <path id="Path_1053" data-name="Path 1053" d="M169.653,319.045a4.273,4.273,0,1,1-4.275-4.272A4.274,4.274,0,0,1,169.653,319.045Z" transform="translate(-161.106 -314.773)" fill="#283e51"/>
    </g>
    <g id="Group_1863" data-name="Group 1863" transform="translate(114.852 368.302)">
      <path id="Path_1054" data-name="Path 1054" d="M63.118,340.684a4.273,4.273,0,1,1-4.275-4.272A4.274,4.274,0,0,1,63.118,340.684Z" transform="translate(-54.571 -336.412)" fill="#283e51"/>
    </g>
    <g id="Group_1864" data-name="Group 1864" transform="translate(66.605 520.956)">
      <path id="Path_1055" data-name="Path 1055" d="M43.611,402.394a4.272,4.272,0,1,1-4.272-4.272A4.274,4.274,0,0,1,43.611,402.394Z" transform="translate(-35.067 -398.122)" fill="#283e51"/>
    </g>
    <g id="Group_1865" data-name="Group 1865" transform="translate(498.171 412.31)">
      <path id="Path_1056" data-name="Path 1056" d="M214.175,356.527a2.324,2.324,0,1,1-2.325-2.325A2.326,2.326,0,0,1,214.175,356.527Z" transform="translate(-209.527 -354.202)" fill="#283e51"/>
    </g>
    <g id="Group_1866" data-name="Group 1866" transform="translate(268.387 354.875)">
      <path id="Path_1057" data-name="Path 1057" d="M121.288,333.309a2.325,2.325,0,1,1-2.325-2.325A2.326,2.326,0,0,1,121.288,333.309Z" transform="translate(-116.637 -330.984)" fill="#283e51"/>
    </g>
    <g id="Group_1867" data-name="Group 1867" transform="translate(51.495 442.707)">
      <path id="Path_1058" data-name="Path 1058" d="M33.607,368.813a2.324,2.324,0,1,1-2.323-2.323A2.324,2.324,0,0,1,33.607,368.813Z" transform="translate(-28.959 -366.49)" fill="#283e51"/>
    </g>
    <g id="Group_1868" data-name="Group 1868" transform="translate(188.715 403.125)" opacity="0.3">
      <path id="Path_1059" data-name="Path 1059" d="M108.915,515.573v-28.7h47.7a17.747,17.747,0,0,0,17.747-17.747v-8.267h-.19a5.552,5.552,0,0,0,.19-1.37V360.948A10.46,10.46,0,0,0,163.9,350.489h-41.86a27.961,27.961,0,0,0-13.375,18.4h-2.743A21.511,21.511,0,0,0,84.43,390.378v1.447A21.5,21.5,0,0,0,95.851,410.8v6.417H93.993V501.2H85.353l1.563,9.544a10.154,10.154,0,0,0,10.058,8.544H119.1v-3.711Z" transform="translate(-84.43 -350.489)" fill="#283e51"/>
    </g>
    <g id="Group_1869" data-name="Group 1869" transform="translate(311.234 384.082)" opacity="0.3">
      <path id="Path_1060" data-name="Path 1060" d="M215.156,521.122l1.405-8.581H207.01V452.82h1.855v-25.5H207.01v-5.18a21.5,21.5,0,0,0,11.419-18.971v-1.447a21.512,21.512,0,0,0-20.893-21.479,29.985,29.985,0,0,0-28.215-20.181,29.652,29.652,0,0,0-13.744,3.377,39.931,39.931,0,0,0-11.78-20.648h-2.011a7.825,7.825,0,0,0-7.827,7.827V529.167H209.52A11.29,11.29,0,0,0,215.156,521.122Z" transform="translate(-133.958 -342.791)" fill="#283e51"/>
    </g>
    <g id="Group_1883" data-name="Group 1883" transform="translate(193.663 373.371)">
      <g id="Group_1876" data-name="Group 1876" transform="translate(0.923 64.487)">
        <g id="Group_1870" data-name="Group 1870" transform="translate(10.497)">
          <rect id="Rectangle_10593" data-name="Rectangle 10593" width="174.255" height="125.251" rx="1" fill="#17ac9d"/>
        </g>
        <g id="Group_1871" data-name="Group 1871" transform="translate(8.641 31.991)">
          <path id="Path_1061" data-name="Path 1061" d="M262.077,472.577H96.483a6.192,6.192,0,0,1-6.187-6.184v-88.93h3.711v88.93a2.477,2.477,0,0,0,2.476,2.474H262.077Z" transform="translate(-90.296 -377.462)" fill="#283e51"/>
        </g>
        <g id="Group_1872" data-name="Group 1872" transform="translate(182.897 30.754)">
          <rect id="Rectangle_10594" data-name="Rectangle 10594" width="3.711" height="25.498" fill="#283e51"/>
        </g>
        <g id="Group_1873" data-name="Group 1873" transform="translate(18.96 9.855)">
          <rect id="Rectangle_10595" data-name="Rectangle 10595" width="156.384" height="101.641" fill="#fff"/>
        </g>
        <g id="Group_1874" data-name="Group 1874" transform="translate(2.184 117.829)">
          <path id="Path_1062" data-name="Path 1062" d="M267.209,426.539H97.123a8.339,8.339,0,0,1-8.228-6.988l-1.21-7.389h78.83l3.018,4.329h21.781l3.26-4.329h83.046l-1.054,6.427A9.485,9.485,0,0,1,267.209,426.539Z" transform="translate(-87.686 -412.162)" fill="#fff"/>
        </g>
        <g id="Group_1875" data-name="Group 1875" transform="translate(0 115.974)">
          <path id="Path_1063" data-name="Path 1063" d="M268.511,429.5H98.425a10.154,10.154,0,0,1-10.058-8.544L86.8,411.412h81.984l3.016,4.329h19.889l3.26-4.329h86.155l-1.405,8.581A11.3,11.3,0,0,1,268.511,429.5ZM91.169,415.123l.861,5.232a6.455,6.455,0,0,0,6.395,5.435H268.511a7.6,7.6,0,0,0,7.528-6.395l.7-4.272H196.8l-3.26,4.329H169.866l-3.015-4.329Z" transform="translate(-86.803 -411.412)" fill="#283e51"/>
        </g>
      </g>
      <g id="Group_1877" data-name="Group 1877" transform="translate(1.855 1.855)">
        <path id="Path_1064" data-name="Path 1064" d="M260.932,387.367h-.769a27.926,27.926,0,0,0-41.937-15.733,38.264,38.264,0,0,0-74.358-5.506A26.174,26.174,0,0,0,111.1,387.367h-4.285A19.689,19.689,0,0,0,87.18,407v1.445a19.691,19.691,0,0,0,19.631,19.634H260.932a19.691,19.691,0,0,0,19.631-19.634V407A19.689,19.689,0,0,0,260.932,387.367Z" transform="translate(-87.18 -339.211)" fill="#fff"/>
      </g>
      <g id="Group_1878" data-name="Group 1878">
        <path id="Path_1065" data-name="Path 1065" d="M262.037,431.04H232.293V427.33h29.744a17.8,17.8,0,0,0,17.776-17.779V408.1a17.794,17.794,0,0,0-17.776-17.776h-2.162l-.388-1.338A26.072,26.072,0,0,0,220.333,374.3l-2.4,1.544-.435-2.82a36.409,36.409,0,0,0-70.754-5.239l-.529,1.7-1.724-.465a24.322,24.322,0,0,0-30.459,19.738l-.247,1.566h-5.868A17.794,17.794,0,0,0,90.141,408.1v1.447a17.8,17.8,0,0,0,17.776,17.779h27.533v3.711H107.917A21.513,21.513,0,0,1,86.43,409.551V408.1a21.511,21.511,0,0,1,21.487-21.487h2.743a28.018,28.018,0,0,1,33.091-21.583,40.123,40.123,0,0,1,76.921,4.787,29.652,29.652,0,0,1,13.744-3.377,29.985,29.985,0,0,1,28.215,20.181A21.512,21.512,0,0,1,283.524,408.1v1.447A21.513,21.513,0,0,1,262.037,431.04Z" transform="translate(-86.43 -338.461)" fill="#283e51"/>
      </g>
      <g id="Group_1879" data-name="Group 1879" transform="translate(76.104 14.778)">
        <path id="Path_1066" data-name="Path 1066" d="M159.58,361.845a30.031,30.031,0,0,0-40.495-9.514l-1.89-3.194a33.742,33.742,0,0,1,45.5,10.686Z" transform="translate(-117.195 -344.435)" fill="#283e51"/>
      </g>
      <g id="Group_1880" data-name="Group 1880" transform="translate(52.203 25.875)">
        <path id="Path_1067" data-name="Path 1067" d="M123.016,364.4h-3.711a11.786,11.786,0,0,0-11.772-11.772v-3.711A15.5,15.5,0,0,1,123.016,364.4Z" transform="translate(-107.533 -348.921)" fill="#283e51"/>
      </g>
      <g id="Group_1881" data-name="Group 1881" transform="translate(60.836 53.663)">
        <path id="Path_1068" data-name="Path 1068" d="M181.265,391.12l-6.026-.022a27.81,27.81,0,0,0-3.609-8.693l4.265-4.27a3.884,3.884,0,0,0,.012-5.509l-3.191-3.2a3.9,3.9,0,0,0-5.509-.012l-4.275,4.27a27.64,27.64,0,0,0-8.678-3.6v-6.029a3.907,3.907,0,0,0-3.908-3.9h-4.507a3.9,3.9,0,0,0-3.9,3.9v6.029a27.859,27.859,0,0,0-8.557,3.52l-4.24-4.28a3.891,3.891,0,0,0-5.516-.025l-3.211,3.169a3.907,3.907,0,0,0-.027,5.511l4.237,4.292a27.66,27.66,0,0,0-3.636,8.67l-6.026-.027a3.881,3.881,0,0,0-3.906,3.9l-.03,4.51a3.906,3.906,0,0,0,3.881,3.916l6.016.02a27.489,27.489,0,0,0,3.587,8.685l-4.289,4.275a3.892,3.892,0,0,0-.007,5.5l3.166,3.2a3.892,3.892,0,0,0,5.519.022l4.28-4.242a27.83,27.83,0,0,0,8.69,3.634l-.025,6.016a3.9,3.9,0,0,0,3.886,3.913l4.512.017a3.889,3.889,0,0,0,3.906-3.876l.017-6.033a27.963,27.963,0,0,0,8.7-3.592l4.252,4.285a3.927,3.927,0,0,0,5.531,0l3.181-3.184a3.869,3.869,0,0,0,0-5.5l-4.233-4.28a27.76,27.76,0,0,0,3.614-8.693l6.024.02a3.905,3.905,0,0,0,3.9-3.9V395A3.881,3.881,0,0,0,181.265,391.12ZM148.1,409.584A12.366,12.366,0,1,1,160.458,397.2,12.374,12.374,0,0,1,148.1,409.584Z" transform="translate(-111.023 -360.154)" fill="#f5f5f5"/>
      </g>
      <g id="Group_1882" data-name="Group 1882" transform="translate(58.981 51.807)">
        <path id="Path_1069" data-name="Path 1069" d="M151.344,437.237l-4.52-.02a5.747,5.747,0,0,1-5.734-5.774l.02-4.569a29.556,29.556,0,0,1-6.545-2.743l-3.258,3.228a5.69,5.69,0,0,1-4.05,1.677h-.012a5.722,5.722,0,0,1-4.079-1.709l-3.169-3.2a5.751,5.751,0,0,1,.02-8.129l3.26-3.248a29.121,29.121,0,0,1-2.7-6.543L116,406.2a5.773,5.773,0,0,1-5.732-5.784l.03-4.51a5.709,5.709,0,0,1,1.7-4.079,5.99,5.99,0,0,1,4.074-1.66l4.574.02a29.338,29.338,0,0,1,2.741-6.531l-3.223-3.263a5.76,5.76,0,0,1,.04-8.131l3.213-3.176a5.66,5.66,0,0,1,4.035-1.667h0a5.749,5.749,0,0,1,4.1,1.7l3.231,3.26a29.509,29.509,0,0,1,6.4-2.634v-4.586a5.763,5.763,0,0,1,5.759-5.754h4.5a5.766,5.766,0,0,1,5.766,5.754v4.589a29.26,29.26,0,0,1,6.536,2.714L167,369.212a5.762,5.762,0,0,1,8.134.012l3.194,3.194a5.739,5.739,0,0,1-.02,8.138l-3.238,3.243a29.558,29.558,0,0,1,2.719,6.55l4.589.02a5.742,5.742,0,0,1,5.727,5.737v4.522a5.776,5.776,0,0,1-5.759,5.751l-4.581-.015a29.559,29.559,0,0,1-2.726,6.55l3.221,3.258a5.724,5.724,0,0,1-.017,8.129l-3.174,3.174a5.787,5.787,0,0,1-8.156,0l-3.236-3.26a29.613,29.613,0,0,1-6.555,2.7l-.012,4.594A5.753,5.753,0,0,1,151.344,437.237Zm-17.321-17.794,1.249.789a25.937,25.937,0,0,0,8.114,3.394l1.447.334-.032,7.5a2.04,2.04,0,0,0,2.031,2.048l4.519.02a2.036,2.036,0,0,0,2.043-2.021l.022-7.52,1.445-.324a25.928,25.928,0,0,0,8.121-3.357l1.259-.787,5.3,5.338a2.065,2.065,0,0,0,2.909-.012l3.171-3.174a2.017,2.017,0,0,0,.609-1.45,1.977,1.977,0,0,0-.594-1.42l-5.286-5.346.784-1.244a25.951,25.951,0,0,0,3.377-8.116l.327-1.45,7.51.025a2.056,2.056,0,0,0,2.043-2.048v-4.515a2.025,2.025,0,0,0-2.023-2.026l-7.505-.03-.326-1.437a25.92,25.92,0,0,0-3.369-8.114l-.794-1.252,5.314-5.318a2.038,2.038,0,0,0,.611-1.45,2.007,2.007,0,0,0-.594-1.435l-3.194-3.2a2.037,2.037,0,0,0-2.889-.01l-5.323,5.316-1.254-.794a25.683,25.683,0,0,0-8.1-3.364l-1.442-.327v-7.513a2.053,2.053,0,0,0-2.056-2.043h-4.5a2.05,2.05,0,0,0-2.048,2.043v7.518l-1.45.322a25.985,25.985,0,0,0-7.985,3.288l-1.257.779-5.279-5.328a2.053,2.053,0,0,0-1.464-.609h0a1.979,1.979,0,0,0-1.415.586l-3.223,3.181a2.046,2.046,0,0,0-.012,2.884l5.281,5.348-.8,1.247a25.729,25.729,0,0,0-3.394,8.089l-.334,1.447-7.51-.035a1.787,1.787,0,0,0-1.437.581,2.044,2.044,0,0,0-.6,1.459l-.03,4.519a2.053,2.053,0,0,0,2.043,2.051l7.483.025.327,1.442a25.664,25.664,0,0,0,3.342,8.1l.8,1.254-5.346,5.328a2,2,0,0,0-.6,1.432,2.04,2.04,0,0,0,.6,1.45l3.169,3.2a2.037,2.037,0,0,0,1.452.611h0a2.014,2.014,0,0,0,1.43-.594Zm15.179-6.9a14.223,14.223,0,1,1,14.217-14.239A14.254,14.254,0,0,1,149.2,412.547Zm0-24.735a10.512,10.512,0,1,0,10.506,10.5A10.523,10.523,0,0,0,149.2,387.812Z" transform="translate(-110.273 -359.404)" fill="#283e51"/>
      </g>
    </g>
    <g id="Group_1884" data-name="Group 1884" transform="translate(346.425 496.862)" opacity="0.3">
      <path id="Path_1070" data-name="Path 1070" d="M244.57,388.382h-5.959v1.853H232.1v-1.853h-8.03v1.853h-9.776v-1.853H154.648a6.47,6.47,0,0,0-6.464,6.461v62.133a6.471,6.471,0,0,0,6.464,6.464H244.57a6.471,6.471,0,0,0,6.464-6.464V394.843A6.47,6.47,0,0,0,244.57,388.382Z" transform="translate(-148.184 -388.382)" fill="#283e51"/>
    </g>
    <g id="Group_1892" data-name="Group 1892" transform="translate(351.373 496.861)">
      <g id="Group_1891" data-name="Group 1891">
        <g id="Group_1885" data-name="Group 1885" transform="translate(1.856 1.854)">
          <rect id="Rectangle_10596" data-name="Rectangle 10596" width="99.138" height="71.348" rx="1.913" fill="#fff"/>
        </g>
        <g id="Group_1886" data-name="Group 1886" transform="translate(0 0)">
          <path id="Path_1071" data-name="Path 1071" d="M246.57,463.44H156.648a6.471,6.471,0,0,1-6.464-6.464V394.843a6.47,6.47,0,0,1,6.464-6.461h59.644v3.711H156.648a2.755,2.755,0,0,0-2.753,2.751v62.133a2.755,2.755,0,0,0,2.753,2.753H246.57a2.755,2.755,0,0,0,2.753-2.753V394.843a2.755,2.755,0,0,0-2.753-2.751h-5.959v-3.711h5.959a6.47,6.47,0,0,1,6.464,6.461v62.133A6.471,6.471,0,0,1,246.57,463.44Z" transform="translate(-150.184 -388.382)" fill="#283e51"/>
        </g>
        <g id="Group_1887" data-name="Group 1887" transform="translate(75.884)">
          <rect id="Rectangle_10597" data-name="Rectangle 10597" width="8.03" height="3.711" fill="#283e51"/>
        </g>
        <g id="Group_1888" data-name="Group 1888" transform="translate(7.703 28.368)">
          <rect id="Rectangle_10598" data-name="Rectangle 10598" width="3.711" height="18.321" fill="#283e51"/>
        </g>
        <g id="Group_1889" data-name="Group 1889" transform="translate(14.692 7.956)">
          <rect id="Rectangle_10599" data-name="Rectangle 10599" width="72.503" height="59.144" fill="#f5f5f5"/>
        </g>
        <g id="Group_1890" data-name="Group 1890" transform="translate(87.419 33.096)">
          <path id="Path_1072" data-name="Path 1072" d="M189.953,410.624a4.432,4.432,0,1,1,4.43-4.43A4.437,4.437,0,0,1,189.953,410.624Zm0-5.153a.721.721,0,1,0,.72.722A.723.723,0,0,0,189.953,405.472Z" transform="translate(-185.523 -401.761)" fill="#283e51"/>
        </g>
      </g>
    </g>
    <g id="Group_1897" data-name="Group 1897" transform="translate(69.64 568.208)">
      <g id="Group_1894" data-name="Group 1894" transform="translate(11.286)">
        <rect id="Rectangle_10600" data-name="Rectangle 10600" width="405.25" height="3.711" fill="#283e51"/>
      </g>
      <g id="Group_1895" data-name="Group 1895">
        <rect id="Rectangle_10601" data-name="Rectangle 10601" width="6.776" height="3.711" fill="#283e51"/>
      </g>
      <g id="Group_1896" data-name="Group 1896" transform="translate(420.402)">
        <rect id="Rectangle_10602" data-name="Rectangle 10602" width="14.964" height="3.711" fill="#283e51"/>
      </g>
    </g>
  </g>
</svg>
