<svg xmlns="http://www.w3.org/2000/svg" width="552.136" height="254.414" viewBox="0 0 552.136 254.414">
  <g id="Group_1252" data-name="Group 1252" transform="translate(-526.073 -135.293)">
    <g id="Group_1170" data-name="Group 1170" transform="translate(526.073 154.963)">
      <path id="Path_798" data-name="Path 798" d="M1053.6,172.3h0a29.321,29.321,0,0,1-29.32,29.323H955.759A40.775,40.775,0,0,1,914.985,242.4H858.476a22.745,22.745,0,0,0-22.746,22.746h0a22.746,22.746,0,0,0,22.746,22.746H1054.47a23.738,23.738,0,0,1,23.739,23.738h0a23.738,23.738,0,0,1-23.739,23.739H926.759a36.7,36.7,0,0,0-36.7,36.785h0l-248.134.522.732-43.518H554.5a28.431,28.431,0,0,1-28.43-28.429h0a28.429,28.429,0,0,1,28.43-28.429h68.411a26.218,26.218,0,0,0,26.216-26.216h0a26.216,26.216,0,0,0-26.216-26.216h-6.339a38.443,38.443,0,0,1-38.441-38.443h0a38.44,38.44,0,0,1,38.441-38.441H1024.28A29.318,29.318,0,0,1,1053.6,172.3Z" transform="translate(-526.073 -142.979)" fill="#f5f5f5"/>
    </g>
    <g id="Group_1173" data-name="Group 1173" transform="translate(735.52 175.886)">
      <g id="Group_1171" data-name="Group 1171" transform="translate(0 5.471)">
        <path id="Path_799" data-name="Path 799" d="M620.773,157.132H609.835a1.919,1.919,0,1,1,0-3.839h10.938a1.919,1.919,0,1,1,0,3.839Z" transform="translate(-607.916 -153.293)" fill="#283e51"/>
      </g>
      <g id="Group_1172" data-name="Group 1172" transform="translate(5.469)">
        <path id="Path_800" data-name="Path 800" d="M611.972,165.934a1.92,1.92,0,0,1-1.919-1.919v-10.94a1.919,1.919,0,1,1,3.839,0v10.94A1.92,1.92,0,0,1,611.972,165.934Z" transform="translate(-610.053 -151.155)" fill="#283e51"/>
      </g>
    </g>
    <g id="Group_1176" data-name="Group 1176" transform="translate(996.836 256.281)">
      <g id="Group_1174" data-name="Group 1174" transform="translate(0 5.471)">
        <path id="Path_801" data-name="Path 801" d="M722.884,188.547H711.946a1.919,1.919,0,0,1,0-3.839h10.938a1.919,1.919,0,1,1,0,3.839Z" transform="translate(-710.027 -184.708)" fill="#283e51"/>
      </g>
      <g id="Group_1175" data-name="Group 1175" transform="translate(5.469)">
        <path id="Path_802" data-name="Path 802" d="M714.083,197.349a1.92,1.92,0,0,1-1.919-1.919v-10.94a1.919,1.919,0,1,1,3.839,0v10.94A1.92,1.92,0,0,1,714.083,197.349Z" transform="translate(-712.164 -182.57)" fill="#283e51"/>
      </g>
    </g>
    <g id="Group_1179" data-name="Group 1179" transform="translate(839.437 137.246)">
      <g id="Group_1177" data-name="Group 1177">
        <path id="Path_803" data-name="Path 803" d="M650.441,147.631a1.919,1.919,0,0,1-1.356-3.276l7.734-7.736a1.92,1.92,0,1,1,2.715,2.715l-7.734,7.734A1.914,1.914,0,0,1,650.441,147.631Z" transform="translate(-648.522 -136.056)" fill="#283e51"/>
      </g>
      <g id="Group_1178" data-name="Group 1178">
        <path id="Path_804" data-name="Path 804" d="M658.175,147.631a1.913,1.913,0,0,1-1.356-.563l-7.734-7.734a1.92,1.92,0,1,1,2.715-2.715l7.734,7.736a1.919,1.919,0,0,1-1.359,3.276Z" transform="translate(-648.522 -136.056)" fill="#283e51"/>
      </g>
    </g>
    <g id="Group_1182" data-name="Group 1182" transform="translate(654.734 230.225)">
      <g id="Group_1180" data-name="Group 1180">
        <path id="Path_805" data-name="Path 805" d="M578.269,183.963a1.919,1.919,0,0,1-1.359-3.276l7.736-7.736a1.919,1.919,0,0,1,2.713,2.715l-7.734,7.734A1.909,1.909,0,0,1,578.269,183.963Z" transform="translate(-576.348 -172.388)" fill="#283e51"/>
      </g>
      <g id="Group_1181" data-name="Group 1181">
        <path id="Path_806" data-name="Path 806" d="M586,183.963a1.9,1.9,0,0,1-1.356-.563l-7.736-7.734a1.92,1.92,0,1,1,2.715-2.715l7.734,7.736A1.919,1.919,0,0,1,586,183.963Z" transform="translate(-576.348 -172.388)" fill="#283e51"/>
      </g>
    </g>
    <g id="Group_1183" data-name="Group 1183" transform="translate(666.39 181.358)">
      <rect id="Rectangle_10237" data-name="Rectangle 10237" width="44.519" height="3.839" fill="#283e51"/>
    </g>
    <g id="Group_1184" data-name="Group 1184" transform="translate(943.101 261.753)">
      <rect id="Rectangle_10238" data-name="Rectangle 10238" width="44.518" height="3.839" fill="#283e51"/>
    </g>
    <g id="Group_1185" data-name="Group 1185" transform="translate(873.835 175.887)">
      <rect id="Rectangle_10239" data-name="Rectangle 10239" width="84.998" height="3.839" fill="#283e51"/>
    </g>
    <g id="Group_1186" data-name="Group 1186" transform="translate(717.358 141.116)">
      <rect id="Rectangle_10240" data-name="Rectangle 10240" width="114.364" height="3.839" fill="#283e51"/>
    </g>
    <g id="Group_1187" data-name="Group 1187" transform="translate(551.823 234.092)">
      <rect id="Rectangle_10241" data-name="Rectangle 10241" width="98.259" height="3.839" fill="#283e51"/>
    </g>
    <g id="Group_1188" data-name="Group 1188" transform="translate(960.325 237.179)">
      <rect id="Rectangle_10242" data-name="Rectangle 10242" width="87.798" height="3.839" fill="#283e51"/>
    </g>
    <g id="Group_1189" data-name="Group 1189" transform="translate(714.747 181.358)">
      <rect id="Rectangle_10243" data-name="Rectangle 10243" width="9.137" height="3.839" fill="#283e51"/>
    </g>
    <g id="Group_1190" data-name="Group 1190" transform="translate(592.902 309.445)">
      <path id="Path_807" data-name="Path 807" d="M558.27,206.387a3.042,3.042,0,1,1-3.043-3.043A3.041,3.041,0,0,1,558.27,206.387Z" transform="translate(-552.187 -203.344)" fill="#283e51"/>
    </g>
    <g id="Group_1191" data-name="Group 1191" transform="translate(1042.041 258.472)">
      <path id="Path_808" data-name="Path 808" d="M733.774,186.469a3.042,3.042,0,1,1-3.043-3.043A3.041,3.041,0,0,1,733.774,186.469Z" transform="translate(-727.691 -183.426)" fill="#283e51"/>
    </g>
    <g id="Group_1192" data-name="Group 1192" transform="translate(927.159 196.902)">
      <path id="Path_809" data-name="Path 809" d="M688.883,162.407a3.042,3.042,0,1,1-3.043-3.04A3.042,3.042,0,0,1,688.883,162.407Z" transform="translate(-682.8 -159.367)" fill="#283e51"/>
    </g>
    <g id="Group_1193" data-name="Group 1193" transform="translate(663.747 144.26)">
      <path id="Path_810" data-name="Path 810" d="M588.712,143.217a4.421,4.421,0,1,1-4.42-4.42A4.419,4.419,0,0,1,588.712,143.217Z" transform="translate(-579.87 -138.797)" fill="#283e51"/>
    </g>
    <g id="Group_1194" data-name="Group 1194" transform="translate(778.719 163.344)">
      <path id="Path_811" data-name="Path 811" d="M630.879,149.294a3.042,3.042,0,1,1-3.043-3.04A3.042,3.042,0,0,1,630.879,149.294Z" transform="translate(-624.796 -146.254)" fill="#283e51"/>
    </g>
    <g id="Group_1195" data-name="Group 1195" transform="translate(625.191 253.763)">
      <path id="Path_812" data-name="Path 812" d="M572.556,185.463a3.876,3.876,0,1,1-3.877-3.877A3.876,3.876,0,0,1,572.556,185.463Z" transform="translate(-564.804 -181.586)" fill="#283e51"/>
    </g>
    <g id="Group_1196" data-name="Group 1196" transform="translate(987.621 311.653)">
      <path id="Path_813" data-name="Path 813" d="M714.175,208.082a3.874,3.874,0,1,1-3.874-3.874A3.877,3.877,0,0,1,714.175,208.082Z" transform="translate(-706.426 -204.207)" fill="#283e51"/>
    </g>
    <g id="Group_1197" data-name="Group 1197" transform="translate(961.487 135.293)">
      <path id="Path_814" data-name="Path 814" d="M703.963,139.168a3.875,3.875,0,1,1-3.874-3.875A3.875,3.875,0,0,1,703.963,139.168Z" transform="translate(-696.214 -135.293)" fill="#283e51"/>
    </g>
    <g id="Group_1209" data-name="Group 1209" transform="translate(712.427 206.47)">
      <g id="Group_1198" data-name="Group 1198" transform="translate(1.919 1.92)">
        <path id="Rectangle_10244" data-name="Rectangle 10244" d="M1.974,0H205.032a1.973,1.973,0,0,1,1.973,1.973V123.127a0,0,0,0,1,0,0H0a0,0,0,0,1,0,0V1.974A1.974,1.974,0,0,1,1.974,0Z" fill="#17ac9d"/>
      </g>
      <g id="Group_1199" data-name="Group 1199">
        <path id="Path_815" data-name="Path 815" d="M602.731,226.734h-3.839v-51.7a11.942,11.942,0,0,1,11.928-11.931h48.915v3.839H610.82a8.1,8.1,0,0,0-8.089,8.092Z" transform="translate(-598.892 -163.106)" fill="#283e51"/>
      </g>
      <g id="Group_1200" data-name="Group 1200" transform="translate(154.774)">
        <path id="Path_816" data-name="Path 816" d="M715.442,234.061H711.6V175.037a8.1,8.1,0,0,0-8.089-8.092H659.371v-3.839h44.143a11.942,11.942,0,0,1,11.928,11.931Z" transform="translate(-659.371 -163.106)" fill="#283e51"/>
      </g>
      <g id="Group_1201" data-name="Group 1201" transform="translate(13.152 13.96)">
        <rect id="Rectangle_10245" data-name="Rectangle 10245" width="184.77" height="97.25" fill="#fff"/>
      </g>
      <g id="Group_1202" data-name="Group 1202" transform="translate(74.239 143.708)">
        <rect id="Rectangle_10246" data-name="Rectangle 10246" width="62.366" height="36.919" fill="#fff"/>
      </g>
      <g id="Group_1203" data-name="Group 1203" transform="translate(74.239 143.708)">
        <rect id="Rectangle_10247" data-name="Rectangle 10247" width="62.366" height="18.46" fill="#f5f5f5"/>
      </g>
      <g id="Group_1204" data-name="Group 1204" transform="translate(72.319 141.789)">
        <path id="Path_817" data-name="Path 817" d="M693.358,259.27H627.151V218.511h66.207Zm-62.369-3.839h58.53V222.35H630.99Z" transform="translate(-627.151 -218.511)" fill="#283e51"/>
      </g>
      <g id="Group_1205" data-name="Group 1205" transform="translate(1.919 120.526)">
        <path id="Rectangle_10248" data-name="Rectangle 10248" d="M0,0H207.005a0,0,0,0,1,0,0V25.955a2,2,0,0,1-2,2H2a2,2,0,0,1-2-2V0A0,0,0,0,1,0,0Z" fill="#fff"/>
      </g>
      <g id="Group_1206" data-name="Group 1206" transform="translate(58.22 146.562)">
        <rect id="Rectangle_10249" data-name="Rectangle 10249" width="113.596" height="3.839" fill="#283e51"/>
      </g>
      <g id="Group_1207" data-name="Group 1207" transform="translate(59.5 118.606)">
        <rect id="Rectangle_10250" data-name="Rectangle 10250" width="113.596" height="3.839" fill="#283e51"/>
      </g>
      <g id="Group_1208" data-name="Group 1208" transform="translate(62.113 179.398)">
        <rect id="Rectangle_10251" data-name="Rectangle 10251" width="87.432" height="3.839" fill="#283e51"/>
      </g>
    </g>
    <g id="Group_1217" data-name="Group 1217" transform="translate(608.367 273.002)">
      <g id="Group_1210" data-name="Group 1210" transform="translate(9.359 1.918)">
        <rect id="Rectangle_10252" data-name="Rectangle 10252" width="148.766" height="106.931" rx="1" fill="#17ac9d"/>
      </g>
      <g id="Group_1211" data-name="Group 1211" transform="translate(125.38)">
        <rect id="Rectangle_10253" data-name="Rectangle 10253" width="10.274" height="3.839" fill="#283e51"/>
      </g>
      <g id="Group_1212" data-name="Group 1212" transform="translate(7.44 0.001)">
        <path id="Path_818" data-name="Path 818" d="M564.976,291.695h-3.839V194.719a5.623,5.623,0,0,1,5.617-5.615H672.493v3.839H566.754a1.779,1.779,0,0,0-1.779,1.776Z" transform="translate(-561.137 -189.104)" fill="#283e51"/>
      </g>
      <g id="Group_1213" data-name="Group 1213" transform="translate(139.987 0.001)">
        <path id="Path_819" data-name="Path 819" d="M627.372,299.871v-3.839a1.781,1.781,0,0,0,1.779-1.779V194.719a1.779,1.779,0,0,0-1.779-1.776H612.931V189.1h14.441a5.623,5.623,0,0,1,5.617,5.615v99.535A5.625,5.625,0,0,1,627.372,299.871Z" transform="translate(-612.931 -189.104)" fill="#283e51"/>
      </g>
      <g id="Group_1214" data-name="Group 1214" transform="translate(16.583 10.332)">
        <rect id="Rectangle_10254" data-name="Rectangle 10254" width="133.51" height="86.773" fill="#fff"/>
      </g>
      <g id="Group_1215" data-name="Group 1215" transform="translate(2.26 102.512)">
        <path id="Path_820" data-name="Path 820" d="M712.38,241.435H567.172a7.116,7.116,0,0,1-7.022-5.965l-1.037-6.308h67.3l2.575,3.7h18.6l2.782-3.7h70.9l-.9,5.487A8.1,8.1,0,0,1,712.38,241.435Z" transform="translate(-559.113 -229.161)" fill="#fff"/>
      </g>
      <g id="Group_1216" data-name="Group 1216" transform="translate(0 100.593)">
        <path id="Path_821" data-name="Path 821" d="M713.754,244.523H568.549a9.005,9.005,0,0,1-8.919-7.575l-1.4-8.537h70.563l2.577,3.7h16.637l2.782-3.7H724.9l-1.264,7.716A9.98,9.98,0,0,1,713.754,244.523Zm-151-12.274.671,4.079a5.176,5.176,0,0,0,5.129,4.356H713.754a6.156,6.156,0,0,0,6.1-5.177l.535-3.258H652.706l-2.784,3.7H629.364l-2.574-3.7Z" transform="translate(-558.23 -228.411)" fill="#283e51"/>
      </g>
    </g>
    <g id="Group_1224" data-name="Group 1224" transform="translate(887.645 280.552)">
      <g id="Group_1218" data-name="Group 1218" transform="translate(1.92 1.918)">
        <rect id="Rectangle_10255" data-name="Rectangle 10255" width="105.318" height="75.795" rx="1.913" transform="translate(75.795 0) rotate(90)" fill="#fff"/>
      </g>
      <g id="Group_1219" data-name="Group 1219">
        <path id="Path_822" data-name="Path 822" d="M740.18,301.209H674.175a6.822,6.822,0,0,1-6.815-6.815V198.866a6.822,6.822,0,0,1,6.815-6.812H740.18A6.822,6.822,0,0,1,747,198.866v5.551h-3.839v-5.551a2.978,2.978,0,0,0-2.976-2.974H674.175a2.978,2.978,0,0,0-2.976,2.974v95.527a2.979,2.979,0,0,0,2.976,2.976H740.18a2.979,2.979,0,0,0,2.976-2.976V230.249H747v64.145A6.822,6.822,0,0,1,740.18,301.209Z" transform="translate(-667.36 -192.054)" fill="#283e51"/>
      </g>
      <g id="Group_1220" data-name="Group 1220" transform="translate(75.797 22.747)">
        <rect id="Rectangle_10256" data-name="Rectangle 10256" width="3.839" height="8.53" fill="#283e51"/>
      </g>
      <g id="Group_1221" data-name="Group 1221" transform="translate(30.087 8.182)">
        <rect id="Rectangle_10257" data-name="Rectangle 10257" width="19.462" height="3.839" fill="#283e51"/>
      </g>
      <g id="Group_1222" data-name="Group 1222" transform="translate(8.402 15.554)">
        <rect id="Rectangle_10258" data-name="Rectangle 10258" width="77.022" height="62.831" transform="translate(62.831 0) rotate(90)" fill="#f5f5f5"/>
      </g>
      <g id="Group_1223" data-name="Group 1223" transform="translate(35.162 92.866)">
        <path id="Path_823" data-name="Path 823" d="M685.755,237.655A4.656,4.656,0,1,1,690.41,233,4.663,4.663,0,0,1,685.755,237.655Zm0-5.474a.818.818,0,1,0,.816.816A.817.817,0,0,0,685.755,232.181Z" transform="translate(-681.1 -228.342)" fill="#283e51"/>
      </g>
    </g>
    <g id="Group_1231" data-name="Group 1231" transform="translate(656.806 292.542)">
      <g id="Group_1225" data-name="Group 1225" transform="translate(36.176 4.458)">
        <path id="Path_824" data-name="Path 824" d="M591.294,198.481v30.96l.015.015,21.845,21.9a30.867,30.867,0,0,0,9.1-21.829c0-.031,0-.061,0-.092A30.958,30.958,0,0,0,591.294,198.481Z" transform="translate(-591.294 -198.481)" fill="#17ac9d"/>
      </g>
      <g id="Group_1226" data-name="Group 1226" transform="translate(3.716 4.458)">
        <path id="Path_825" data-name="Path 825" d="M587.705,207.52a30.855,30.855,0,0,0-9.1,21.86l30.955.077V198.481A30.86,30.86,0,0,0,587.705,207.52Z" transform="translate(-578.61 -198.481)" fill="#f5f5f5"/>
      </g>
      <g id="Group_1227" data-name="Group 1227" transform="translate(3.713 36.862)">
        <path id="Path_826" data-name="Path 826" d="M609.582,211.217h-.015l-30.955-.074,0,.059a30.956,30.956,0,0,0,52.818,21.922Z" transform="translate(-578.609 -211.143)" fill="#f5f5f5"/>
      </g>
      <g id="Group_1228" data-name="Group 1228">
        <path id="Path_827" data-name="Path 827" d="M612.057,266.539a34.9,34.9,0,1,1,34.9-34.9A34.937,34.937,0,0,1,612.057,266.539Zm0-65.962a31.062,31.062,0,1,0,31.06,31.063A31.1,31.1,0,0,0,612.057,200.578Z" transform="translate(-577.158 -196.739)" fill="#283e51"/>
      </g>
      <g id="Group_1229" data-name="Group 1229" transform="translate(1.943 34.137)">
        <path id="Path_828" data-name="Path 828" d="M631.161,234.647l-21.074-20.731H577.917v-3.839h33.741l22.194,21.83Z" transform="translate(-577.917 -210.078)" fill="#283e51"/>
      </g>
      <g id="Group_1230" data-name="Group 1230" transform="translate(31.677 1.298)">
        <rect id="Rectangle_10259" data-name="Rectangle 10259" width="3.839" height="34.136" fill="#283e51"/>
      </g>
    </g>
    <g id="Group_1232" data-name="Group 1232" transform="translate(778.717 188.994)">
      <rect id="Rectangle_10260" data-name="Rectangle 10260" width="22.928" height="129.058" fill="#17ac9d"/>
    </g>
    <g id="Group_1233" data-name="Group 1233" transform="translate(778.717 188.994)">
      <rect id="Rectangle_10261" data-name="Rectangle 10261" width="11.464" height="129.058" fill="#f5f5f5"/>
    </g>
    <g id="Group_1234" data-name="Group 1234" transform="translate(776.798 187.076)">
      <path id="Path_829" data-name="Path 829" d="M650.813,286.5h-3.839V159.366h-19.09V286.5h-3.839V155.527h26.767Z" transform="translate(-624.045 -155.527)" fill="#283e51"/>
    </g>
    <g id="Group_1235" data-name="Group 1235" transform="translate(808.523 169.427)">
      <rect id="Rectangle_10262" data-name="Rectangle 10262" width="22.928" height="148.625" fill="#f5f5f5"/>
    </g>
    <g id="Group_1236" data-name="Group 1236" transform="translate(808.523 169.427)">
      <rect id="Rectangle_10263" data-name="Rectangle 10263" width="11.464" height="148.625" fill="#f5f5f5"/>
    </g>
    <g id="Group_1237" data-name="Group 1237" transform="translate(806.604 167.507)">
      <path id="Path_830" data-name="Path 830" d="M662.459,298.425h-3.839V151.72h-19.09V298.425h-3.839V147.881h26.767Z" transform="translate(-635.692 -147.881)" fill="#283e51"/>
    </g>
    <g id="Group_1238" data-name="Group 1238" transform="translate(839.492 153.973)">
      <rect id="Rectangle_10264" data-name="Rectangle 10264" width="22.928" height="164.079" fill="#f5f5f5"/>
    </g>
    <g id="Group_1239" data-name="Group 1239" transform="translate(839.492 153.973)">
      <rect id="Rectangle_10265" data-name="Rectangle 10265" width="11.464" height="164.079" fill="#f5f5f5"/>
    </g>
    <g id="Group_1240" data-name="Group 1240" transform="translate(837.572 152.052)">
      <path id="Path_831" data-name="Path 831" d="M674.561,307.841h-3.839V145.681h-19.09v162.16h-3.839v-166h26.767Z" transform="translate(-647.793 -141.842)" fill="#283e51"/>
    </g>
    <g id="Group_1247" data-name="Group 1247" transform="translate(896.093 319.063)">
      <g id="Group_1241" data-name="Group 1241" transform="translate(0.001 12.652)">
        <path id="Path_832" data-name="Path 832" d="M670.661,223.392v29.921l13.548-.034V212.046Z" transform="translate(-670.661 -212.046)" fill="#17ac9d"/>
      </g>
      <g id="Group_1242" data-name="Group 1242" transform="translate(25.34 6.288)">
        <path id="Path_833" data-name="Path 833" d="M680.6,221.132l-.037-.017v36.011l15.549-.039V209.56Z" transform="translate(-680.563 -209.56)" fill="#17ac9d"/>
      </g>
      <g id="Group_1243" data-name="Group 1243" transform="translate(13.549 12.566)">
        <path id="Path_834" data-name="Path 834" d="M676.058,212.013l-.1.086v41.234l11.792-.03V217.291Z" transform="translate(-675.955 -212.013)" fill="#f5f5f5"/>
      </g>
      <g id="Group_1244" data-name="Group 1244" transform="translate(50.538 1.216)">
        <path id="Path_835" data-name="Path 835" d="M702.61,207.578l-12.2,10.507v42.069l12.2-.031Z" transform="translate(-690.409 -207.578)" fill="#17ac9d"/>
      </g>
      <g id="Group_1245" data-name="Group 1245" transform="translate(40.889 6.288)">
        <path id="Path_836" data-name="Path 836" d="M696.287,215l-9.648-5.436v47.528l9.649-.024V215Z" transform="translate(-686.639 -209.56)" fill="#f5f5f5"/>
      </g>
      <g id="Group_1246" data-name="Group 1246">
        <path id="Path_837" data-name="Path 837" d="M672.692,232.069h-2.031v-3.839h.619l12.6-10.719,11.871,5.228,15.653-11.634,9.562,5.386,10.886-9.374,1.528-.015.026,2.9.417.485-.41.352v.1h-.124L721.43,221.16l-9.737-5.486L696.25,227.153,684.536,222Z" transform="translate(-670.661 -207.103)" fill="#283e51"/>
      </g>
    </g>
    <g id="Group_1251" data-name="Group 1251" transform="translate(567.837 385.868)">
      <g id="Group_1248" data-name="Group 1248" transform="translate(11.676)">
        <rect id="Rectangle_10266" data-name="Rectangle 10266" width="419.242" height="3.839" fill="#283e51"/>
      </g>
      <g id="Group_1249" data-name="Group 1249">
        <rect id="Rectangle_10267" data-name="Rectangle 10267" width="7.01" height="3.839" fill="#283e51"/>
      </g>
      <g id="Group_1250" data-name="Group 1250" transform="translate(434.917)">
        <rect id="Rectangle_10268" data-name="Rectangle 10268" width="15.481" height="3.839" fill="#283e51"/>
      </g>
    </g>
  </g>
</svg>
