<svg xmlns="http://www.w3.org/2000/svg" width="528.177" height="256.609" viewBox="0 0 528.177 256.609">
  <g id="Group_1814" data-name="Group 1814" transform="translate(-20.026 -70.986)">
    <g id="Group_1708" data-name="Group 1708" transform="translate(20.026 101.479)">
      <path id="Path_975" data-name="Path 975" d="M43.341,83.055H506.778a21.968,21.968,0,0,1,21.968,21.968h0a21.968,21.968,0,0,1-21.968,21.968H416.22a19.131,19.131,0,0,0-19.133,19.131h0a19.133,19.133,0,0,0,19.133,19.133H527.054A21.148,21.148,0,0,1,548.2,186.4h0a21.148,21.148,0,0,1-21.149,21.147H471.521a38.328,38.328,0,0,1-38.327,38.327h0A16.923,16.923,0,0,0,416.271,262.8v45.124H172.977v-3.716a41.061,41.061,0,0,0-40.657-41.059l-70.184-.836a23.452,23.452,0,0,1-23.219-23.449h0a23.45,23.45,0,0,1,23.451-23.449H132.4a38.663,38.663,0,0,1,38.661-38.663h3.279a23.532,23.532,0,0,0,23.532-23.532h0a23.532,23.532,0,0,0-23.532-23.535h-131A23.315,23.315,0,0,1,20.026,106.37h0A23.315,23.315,0,0,1,43.341,83.055Z" transform="translate(-20.026 -83.055)" fill="#f5f5f5"/>
    </g>
    <g id="Group_1727" data-name="Group 1727" transform="translate(340.45 253.477)">
      <g id="Group_1709" data-name="Group 1709" transform="translate(38.615 20.614)">
        <path id="Path_976" data-name="Path 976" d="M181.341,151.375H163.465a1.332,1.332,0,0,0-1.331,1.331v5.323a1.332,1.332,0,0,0,1.331,1.334h2.948v35.763a5.9,5.9,0,0,0,11.791.045l.19-24.833V159.361l2.946,0a1.332,1.332,0,0,0,1.331-1.334v-5.323A1.332,1.332,0,0,0,181.341,151.375Z" transform="translate(-162.134 -151.375)" fill="#fff"/>
      </g>
      <g id="Group_1710" data-name="Group 1710" transform="translate(42.895 47.582)">
        <path id="Path_977" data-name="Path 977" d="M163.828,162.049v16.784a5.9,5.9,0,0,0,11.791.045l.19-16.829Z" transform="translate(-163.828 -162.049)" fill="#f5f5f5"/>
      </g>
      <g id="Group_1711" data-name="Group 1711" transform="translate(68.524 20.614)">
        <path id="Path_978" data-name="Path 978" d="M193.179,151.375H175.3a1.332,1.332,0,0,0-1.331,1.331v5.323a1.332,1.332,0,0,0,1.331,1.334h2.948v35.763a5.9,5.9,0,0,0,11.791.045l.19-24.833V159.361l2.946,0a1.332,1.332,0,0,0,1.331-1.334v-5.323A1.332,1.332,0,0,0,193.179,151.375Z" transform="translate(-173.972 -151.375)" fill="#fff"/>
      </g>
      <g id="Group_1712" data-name="Group 1712" transform="translate(72.804 39.578)">
        <path id="Path_979" data-name="Path 979" d="M175.666,158.881v24.788a5.9,5.9,0,0,0,11.791.045l.19-24.833Z" transform="translate(-175.666 -158.881)" fill="#17ac9d"/>
      </g>
      <g id="Group_1713" data-name="Group 1713" transform="translate(102.713 53.984)">
        <path id="Path_980" data-name="Path 980" d="M187.5,164.583v10.382a5.9,5.9,0,0,0,11.794.046l.187-10.427Z" transform="translate(-187.504 -164.583)" fill="#f5f5f5"/>
      </g>
      <g id="Group_1714" data-name="Group 1714" transform="translate(102.728 52.283)">
        <rect id="Rectangle_10540" data-name="Rectangle 10540" width="11.951" height="3.79" fill="#283e51"/>
      </g>
      <g id="Group_1715" data-name="Group 1715" transform="translate(33.928)">
        <path id="Path_981" data-name="Path 981" d="M177.131,191.2h-3.79V160.068a13.079,13.079,0,0,0-13.062-13.062v-3.79a16.872,16.872,0,0,1,16.852,16.852Z" transform="translate(-160.279 -143.216)" fill="#283e51"/>
      </g>
      <g id="Group_1716" data-name="Group 1716" transform="translate(46.743)">
        <path id="Path_982" data-name="Path 982" d="M199.055,160.068h-3.79a13.062,13.062,0,0,0-26.124-.005h-3.79a16.852,16.852,0,0,1,33.7.005Z" transform="translate(-165.351 -143.216)" fill="#283e51"/>
      </g>
      <g id="Group_1717" data-name="Group 1717" transform="translate(76.399)">
        <path id="Path_983" data-name="Path 983" d="M210.8,195.763h-3.79V160.068a13.062,13.062,0,0,0-26.124-.005l-.01,21.771-3.79-.005.01-21.766a16.852,16.852,0,0,1,33.7.005Z" transform="translate(-177.089 -143.216)" fill="#283e51"/>
      </g>
      <g id="Group_1719" data-name="Group 1719" transform="translate(36.72 18.719)">
        <g id="Group_1718" data-name="Group 1718">
          <path id="Path_984" data-name="Path 984" d="M173.456,204.063a7.8,7.8,0,0,1-7.792-7.792V162.4H164.61a3.233,3.233,0,0,1-3.226-3.229v-5.323a3.23,3.23,0,0,1,3.226-3.226h17.875a3.23,3.23,0,0,1,3.226,3.226v5.323a3.233,3.233,0,0,1-3.226,3.229h-1.051v9.08l-.187,24.846A7.815,7.815,0,0,1,173.456,204.063Zm-4-41.66v33.868a4,4,0,0,0,8,.03l.187-37.691,4.277,0v-4.2H165.174v4.2h6.7v3.79Z" transform="translate(-161.384 -150.625)" fill="#283e51"/>
        </g>
      </g>
      <g id="Group_1721" data-name="Group 1721" transform="translate(66.629 18.719)">
        <g id="Group_1720" data-name="Group 1720">
          <path id="Path_985" data-name="Path 985" d="M185.294,204.063a7.8,7.8,0,0,1-7.792-7.792V162.4h-1.054a3.233,3.233,0,0,1-3.226-3.229v-5.323a3.23,3.23,0,0,1,3.226-3.226h17.878a3.23,3.23,0,0,1,3.226,3.226v5.323a3.233,3.233,0,0,1-3.226,3.229h-1.054v9.08l-.19,24.846A7.811,7.811,0,0,1,185.294,204.063Zm-4-41.66v33.868a4,4,0,0,0,8,.03l.19-37.691,4.28,0v-4.2H177.012v4.2h6.7v3.79Z" transform="translate(-173.222 -150.625)" fill="#283e51"/>
        </g>
      </g>
      <g id="Group_1723" data-name="Group 1723" transform="translate(96.538 18.719)">
        <g id="Group_1722" data-name="Group 1722">
          <path id="Path_986" data-name="Path 986" d="M197.132,204.063a7.8,7.8,0,0,1-7.792-7.792V162.4h-1.054a3.233,3.233,0,0,1-3.226-3.229v-5.323a3.23,3.23,0,0,1,3.226-3.226h17.878a3.228,3.228,0,0,1,3.224,3.226v5.323a3.23,3.23,0,0,1-3.224,3.229h-1.054v9.08l-.187,24.846A7.815,7.815,0,0,1,197.132,204.063Zm-4-41.66v33.868a4,4,0,0,0,8,.03l.187-37.691,4.277,0v-4.2H188.85v4.2h6.7v3.79Z" transform="translate(-185.06 -150.625)" fill="#283e51"/>
        </g>
      </g>
      <g id="Group_1724" data-name="Group 1724" transform="translate(42.909 46.912)">
        <rect id="Rectangle_10541" data-name="Rectangle 10541" width="11.952" height="3.79" fill="#283e51"/>
      </g>
      <g id="Group_1725" data-name="Group 1725" transform="translate(72.818 37.831)">
        <rect id="Rectangle_10542" data-name="Rectangle 10542" width="11.953" height="3.79" fill="#283e51"/>
      </g>
      <g id="Group_1726" data-name="Group 1726" transform="translate(0 32.886)">
        <path id="Path_987" data-name="Path 987" d="M273.55,197.465H146.85V173.437h3.79v20.238H269.76V160.022h-87.4v-3.79H273.55Z" transform="translate(-146.85 -156.232)" fill="#283e51"/>
      </g>
    </g>
    <g id="Group_1734" data-name="Group 1734" transform="translate(176.398 186.576)">
      <g id="Group_1728" data-name="Group 1728" transform="translate(10.863 1.895)">
        <rect id="Rectangle_10543" data-name="Rectangle 10543" width="180.876" height="130.01" rx="1" fill="#17ac9d"/>
      </g>
      <g id="Group_1729" data-name="Group 1729" transform="translate(21.568)">
        <rect id="Rectangle_10544" data-name="Rectangle 10544" width="15.181" height="3.79" fill="#283e51"/>
      </g>
      <g id="Group_1730" data-name="Group 1730" transform="translate(8.967 0.001)">
        <path id="Path_988" data-name="Path 988" d="M263.744,250.537H91.857a6.4,6.4,0,0,1-6.39-6.39V174.028h3.79v70.119a2.6,2.6,0,0,0,2.6,2.6H263.744a2.6,2.6,0,0,0,2.6-2.6V123.127a2.6,2.6,0,0,0-2.6-2.6H246.452v-3.79h17.292a6.4,6.4,0,0,1,6.39,6.39v121.02A6.4,6.4,0,0,1,263.744,250.537Z" transform="translate(-85.467 -116.737)" fill="#283e51"/>
      </g>
      <g id="Group_1731" data-name="Group 1731" transform="translate(19.647 12.124)">
        <rect id="Rectangle_10545" data-name="Rectangle 10545" width="162.327" height="105.503" fill="#fff"/>
      </g>
      <g id="Group_1732" data-name="Group 1732" transform="translate(2.233 124.202)">
        <path id="Path_989" data-name="Path 989" d="M269.146,180.818H92.6a8.651,8.651,0,0,1-8.537-7.254L82.8,165.9h81.827l3.13,4.495h22.61l3.386-4.495h86.2l-1.094,6.67A9.845,9.845,0,0,1,269.146,180.818Z" transform="translate(-82.802 -165.896)" fill="#fff"/>
      </g>
      <g id="Group_1733" data-name="Group 1733" transform="translate(0 122.304)">
        <path id="Path_990" data-name="Path 990" d="M270.5,183.859H93.947a10.5,10.5,0,0,1-10.407-8.84l-1.622-9.874h85.05l3.13,4.495h20.675l3.386-4.495h89.376l-1.453,8.873A11.7,11.7,0,0,1,270.5,183.859ZM86.382,168.935l.9,5.47a6.731,6.731,0,0,0,6.667,5.664H270.5a7.922,7.922,0,0,0,7.845-6.662l.733-4.472H196.049l-3.386,4.495H168.12l-3.133-4.495Z" transform="translate(-81.918 -165.145)" fill="#283e51"/>
      </g>
    </g>
    <g id="Group_1737" data-name="Group 1737" transform="translate(138.891 108.207)">
      <g id="Group_1735" data-name="Group 1735" transform="translate(0 5.399)">
        <path id="Path_991" data-name="Path 991" d="M79.766,91.645h-10.8a1.895,1.895,0,0,1,0-3.79h10.8a1.895,1.895,0,0,1,0,3.79Z" transform="translate(-67.073 -87.855)" fill="#283e51"/>
      </g>
      <g id="Group_1736" data-name="Group 1736" transform="translate(5.399)">
        <path id="Path_992" data-name="Path 992" d="M71.1,100.306a1.9,1.9,0,0,1-1.895-1.895v-10.8a1.895,1.895,0,1,1,3.79,0v10.8A1.9,1.9,0,0,1,71.1,100.306Z" transform="translate(-69.21 -85.718)" fill="#283e51"/>
      </g>
    </g>
    <g id="Group_1740" data-name="Group 1740" transform="translate(480.523 160.056)">
      <g id="Group_1738" data-name="Group 1738" transform="translate(0 5.399)">
        <path id="Path_993" data-name="Path 993" d="M214.984,112.167h-10.8a1.895,1.895,0,1,1,0-3.79h10.8a1.895,1.895,0,1,1,0,3.79Z" transform="translate(-202.291 -108.377)" fill="#283e51"/>
      </g>
      <g id="Group_1739" data-name="Group 1739" transform="translate(5.399)">
        <path id="Path_994" data-name="Path 994" d="M206.323,120.831a1.9,1.9,0,0,1-1.895-1.895v-10.8a1.895,1.895,0,1,1,3.79,0v10.8A1.9,1.9,0,0,1,206.323,120.831Z" transform="translate(-204.428 -106.24)" fill="#283e51"/>
      </g>
    </g>
    <g id="Group_1743" data-name="Group 1743" transform="translate(303.164 88.266)">
      <g id="Group_1741" data-name="Group 1741">
        <path id="Path_995" data-name="Path 995" d="M133.989,89.25a1.895,1.895,0,0,1-1.342-3.234l7.635-7.635a1.895,1.895,0,1,1,2.681,2.678l-7.635,7.635A1.88,1.88,0,0,1,133.989,89.25Z" transform="translate(-132.092 -77.825)" fill="#283e51"/>
      </g>
      <g id="Group_1742" data-name="Group 1742">
        <path id="Path_996" data-name="Path 996" d="M141.624,89.25a1.89,1.89,0,0,1-1.342-.556l-7.635-7.635a1.895,1.895,0,1,1,2.681-2.678l7.635,7.635a1.895,1.895,0,0,1-1.339,3.234Z" transform="translate(-132.092 -77.825)" fill="#283e51"/>
      </g>
    </g>
    <g id="Group_1744" data-name="Group 1744" transform="translate(194.858 92.082)">
      <rect id="Rectangle_10546" data-name="Rectangle 10546" width="102.873" height="3.79" fill="#283e51"/>
    </g>
    <g id="Group_1747" data-name="Group 1747" transform="translate(127.813 164.473)">
      <g id="Group_1745" data-name="Group 1745">
        <path id="Path_997" data-name="Path 997" d="M64.583,119.415a1.9,1.9,0,0,1-1.339-3.236l7.635-7.635a1.895,1.895,0,1,1,2.678,2.681l-7.635,7.635A1.88,1.88,0,0,1,64.583,119.415Z" transform="translate(-62.688 -107.988)" fill="#283e51"/>
      </g>
      <g id="Group_1746" data-name="Group 1746">
        <path id="Path_998" data-name="Path 998" d="M72.218,119.415a1.88,1.88,0,0,1-1.339-.556l-7.635-7.635a1.895,1.895,0,1,1,2.678-2.681l7.635,7.635a1.9,1.9,0,0,1-1.339,3.236Z" transform="translate(-62.688 -107.988)" fill="#283e51"/>
      </g>
    </g>
    <g id="Group_1748" data-name="Group 1748" transform="translate(44.97 168.291)">
      <rect id="Rectangle_10547" data-name="Rectangle 10547" width="77.408" height="3.79" fill="#283e51"/>
    </g>
    <g id="Group_1749" data-name="Group 1749" transform="translate(435.805 239.978)">
      <rect id="Rectangle_10548" data-name="Rectangle 10548" width="53.848" height="3.79" fill="#283e51"/>
    </g>
    <g id="Group_1750" data-name="Group 1750" transform="translate(363.815 149.508)">
      <rect id="Rectangle_10549" data-name="Rectangle 10549" width="67.688" height="3.79" fill="#283e51"/>
    </g>
    <g id="Group_1751" data-name="Group 1751" transform="translate(172.019 113.606)">
      <rect id="Rectangle_10550" data-name="Rectangle 10550" width="43.95" height="3.79" fill="#283e51"/>
    </g>
    <g id="Group_1752" data-name="Group 1752" transform="translate(409.204 165.456)">
      <rect id="Rectangle_10551" data-name="Rectangle 10551" width="67.18" height="3.79" fill="#283e51"/>
    </g>
    <g id="Group_1753" data-name="Group 1753" transform="translate(159.209 113.606)">
      <rect id="Rectangle_10552" data-name="Rectangle 10552" width="9.021" height="3.79" fill="#283e51"/>
    </g>
    <g id="Group_1754" data-name="Group 1754" transform="translate(101.153 241.872)">
      <path id="Path_999" data-name="Path 999" d="M58.323,141.718a3.094,3.094,0,1,1-3.095-3.1A3.093,3.093,0,0,1,58.323,141.718Z" transform="translate(-52.136 -138.623)" fill="#283e51"/>
    </g>
    <g id="Group_1755" data-name="Group 1755" transform="translate(194.439 146.63)">
      <path id="Path_1000" data-name="Path 1000" d="M93.016,102.9a1.978,1.978,0,1,1-1.978-1.978A1.976,1.976,0,0,1,93.016,102.9Z" transform="translate(-89.059 -100.926)" fill="#283e51"/>
    </g>
    <g id="Group_1756" data-name="Group 1756" transform="translate(440.816 194.968)">
      <path id="Path_1001" data-name="Path 1001" d="M190.532,122.036a1.978,1.978,0,1,1-1.978-1.978A1.98,1.98,0,0,1,190.532,122.036Z" transform="translate(-186.575 -120.058)" fill="#283e51"/>
    </g>
    <g id="Group_1757" data-name="Group 1757" transform="translate(291.776 121.64)">
      <path id="Path_1002" data-name="Path 1002" d="M131.542,93.016a1.978,1.978,0,1,1-1.978-1.981A1.976,1.976,0,0,1,131.542,93.016Z" transform="translate(-127.585 -91.035)" fill="#283e51"/>
    </g>
    <g id="Group_1758" data-name="Group 1758" transform="translate(106.228 92.866)">
      <path id="Path_1003" data-name="Path 1003" d="M59.585,82.367a2.72,2.72,0,1,1-2.719-2.721A2.72,2.72,0,0,1,59.585,82.367Z" transform="translate(-54.145 -79.646)" fill="#283e51"/>
    </g>
    <g id="Group_1759" data-name="Group 1759" transform="translate(390.078 224.692)">
      <path id="Path_1004" data-name="Path 1004" d="M171.933,134.542a2.72,2.72,0,1,1-2.719-2.719A2.718,2.718,0,0,1,171.933,134.542Z" transform="translate(-166.493 -131.823)" fill="#283e51"/>
    </g>
    <g id="Group_1760" data-name="Group 1760" transform="translate(410.283 89.488)">
      <path id="Path_1005" data-name="Path 1005" d="M178.34,80.234a1.925,1.925,0,1,1-1.925-1.925A1.925,1.925,0,0,1,178.34,80.234Z" transform="translate(-174.49 -78.309)" fill="#283e51"/>
    </g>
    <g id="Group_1761" data-name="Group 1761" transform="translate(313.36 70.986)">
      <path id="Path_1006" data-name="Path 1006" d="M141.062,73.452a2.467,2.467,0,1,1-2.466-2.466A2.467,2.467,0,0,1,141.062,73.452Z" transform="translate(-136.128 -70.986)" fill="#283e51"/>
    </g>
    <g id="Group_1762" data-name="Group 1762" transform="translate(378.113 120.9)">
      <path id="Path_1007" data-name="Path 1007" d="M167.2,93.463a2.72,2.72,0,1,1-2.721-2.721A2.72,2.72,0,0,1,167.2,93.463Z" transform="translate(-161.757 -90.742)" fill="#283e51"/>
    </g>
    <g id="Group_1790" data-name="Group 1790" transform="translate(93.748 168.29)">
      <g id="Group_1763" data-name="Group 1763" transform="translate(84.631 26.084)">
        <path id="Path_1008" data-name="Path 1008" d="M102.394,135.227v-8.916h2.4a1.083,1.083,0,0,0,1.081-1.081V120.9a1.083,1.083,0,0,0-1.081-1.081H90.269A1.08,1.08,0,0,0,89.19,120.9v4.325a1.08,1.08,0,0,0,1.079,1.081h2.4v8.914a14.831,14.831,0,1,0,9.73,0Z" transform="translate(-82.702 -119.823)" fill="#fff"/>
      </g>
      <g id="Group_1764" data-name="Group 1764" transform="translate(46.929 84.99)">
        <path id="Path_1009" data-name="Path 1009" d="M92.707,178.9,85.289,158.54v-8.914h2.4a1.083,1.083,0,0,0,1.081-1.081v-4.325a1.083,1.083,0,0,0-1.081-1.081H73.167a1.081,1.081,0,0,0-1.081,1.081v4.325a1.081,1.081,0,0,0,1.081,1.081H75.56v8.914L68,178.881a3.4,3.4,0,0,0,3.183,4.581h18.34A3.394,3.394,0,0,0,92.707,178.9Z" transform="translate(-67.78 -143.138)" fill="#fff"/>
      </g>
      <g id="Group_1765" data-name="Group 1765" transform="translate(84.904 55.336)">
        <path id="Path_1010" data-name="Path 1010" d="M111.918,131.4a14.554,14.554,0,0,1-29.108,0Z" transform="translate(-82.81 -131.401)" fill="#17ac9d"/>
      </g>
      <g id="Group_1766" data-name="Group 1766" transform="translate(46.578 113.759)">
        <path id="Path_1011" data-name="Path 1011" d="M70.317,154.525,67.8,162.137a3,3,0,0,0,2.845,3.941H91.166a3,3,0,0,0,2.769-4.154l-3.09-7.4Z" transform="translate(-67.641 -154.525)" fill="#17ac9d"/>
      </g>
      <g id="Group_1767" data-name="Group 1767" transform="translate(57.602)">
        <path id="Path_1012" data-name="Path 1012" d="M75.794,221.982H72l.025-105.134a7.348,7.348,0,1,1,14.7,0v12.832a4.008,4.008,0,0,0,8.017,0v-3.188a10.507,10.507,0,0,1,21.013,0v37.724h-3.79V126.492a6.717,6.717,0,0,0-13.434,0v3.188a7.8,7.8,0,0,1-15.6,0V116.849a3.559,3.559,0,1,0-7.117,0Z" transform="translate(-72.004 -109.499)" fill="#283e51"/>
      </g>
      <g id="Group_1768" data-name="Group 1768" transform="translate(27.183 33.711)">
        <path id="Path_1013" data-name="Path 1013" d="M69.231,127.476a4.634,4.634,0,1,1-4.634-4.634A4.633,4.633,0,0,1,69.231,127.476Z" transform="translate(-59.964 -122.842)" fill="#fff"/>
      </g>
      <g id="Group_1769" data-name="Group 1769" transform="translate(27.183 92.597)">
        <path id="Path_1014" data-name="Path 1014" d="M69.231,150.783a4.634,4.634,0,1,1-4.634-4.634A4.633,4.633,0,0,1,69.231,150.783Z" transform="translate(-59.964 -146.149)" fill="#fff"/>
      </g>
      <g id="Group_1770" data-name="Group 1770" transform="translate(25.288 31.819)">
        <path id="Path_1015" data-name="Path 1015" d="M65.743,135.148a6.527,6.527,0,1,1,6.529-6.529A6.535,6.535,0,0,1,65.743,135.148Zm0-9.265a2.737,2.737,0,1,0,2.739,2.736A2.742,2.742,0,0,0,65.743,125.883Z" transform="translate(-59.214 -122.093)" fill="#283e51"/>
      </g>
      <g id="Group_1771" data-name="Group 1771" transform="translate(25.288 90.702)">
        <path id="Path_1016" data-name="Path 1016" d="M65.743,158.456a6.529,6.529,0,1,1,6.529-6.529A6.535,6.535,0,0,1,65.743,158.456Zm0-9.267a2.739,2.739,0,1,0,2.739,2.739A2.743,2.743,0,0,0,65.743,149.189Z" transform="translate(-59.214 -145.399)" fill="#283e51"/>
      </g>
      <g id="Group_1772" data-name="Group 1772" transform="translate(29.922 20.429)">
        <rect id="Rectangle_10553" data-name="Rectangle 10553" width="3.79" height="13.284" fill="#283e51"/>
      </g>
      <g id="Group_1773" data-name="Group 1773" transform="translate(29.922 42.979)">
        <rect id="Rectangle_10554" data-name="Rectangle 10554" width="3.79" height="49.617" fill="#283e51"/>
      </g>
      <g id="Group_1774" data-name="Group 1774" transform="translate(29.922 101.864)">
        <rect id="Rectangle_10555" data-name="Rectangle 10555" width="3.79" height="55.546" fill="#283e51"/>
      </g>
      <g id="Group_1775" data-name="Group 1775" transform="translate(0 36.451)">
        <rect id="Rectangle_10556" data-name="Rectangle 10556" width="27.184" height="3.79" fill="#283e51"/>
      </g>
      <g id="Group_1776" data-name="Group 1776" transform="translate(36.363 36.451)">
        <rect id="Rectangle_10557" data-name="Rectangle 10557" width="79.783" height="3.79" fill="#283e51"/>
      </g>
      <g id="Group_1777" data-name="Group 1777" transform="translate(0 95.76)">
        <rect id="Rectangle_10558" data-name="Rectangle 10558" width="27.184" height="3.79" fill="#283e51"/>
      </g>
      <g id="Group_1779" data-name="Group 1779" transform="translate(82.736 24.189)">
        <g id="Group_1778" data-name="Group 1778">
          <path id="Path_1017" data-name="Path 1017" d="M98.675,167.037a16.683,16.683,0,0,1-6.761-31.953v-5.733h-.5a2.979,2.979,0,0,1-2.974-2.976v-4.323a2.98,2.98,0,0,1,2.974-2.979h14.52a2.982,2.982,0,0,1,2.976,2.979v4.323a2.981,2.981,0,0,1-2.976,2.976h-.5v5.733a16.683,16.683,0,0,1-6.758,31.953ZM95.7,129.351v8.365l-1.271.442a12.933,12.933,0,1,0,8.479,0l-1.268-.442V125.561h3.476v-2.7H92.23v2.7h5.078v3.79Z" transform="translate(-81.952 -119.073)" fill="#283e51"/>
        </g>
      </g>
      <g id="Group_1781" data-name="Group 1781" transform="translate(45.037 83.095)">
        <g id="Group_1780" data-name="Group 1780">
          <path id="Path_1018" data-name="Path 1018" d="M90.662,186.5H72.322a5.29,5.29,0,0,1-4.96-7.135l7.446-20.02v-6.68h-.5a2.98,2.98,0,0,1-2.976-2.976v-4.325a2.98,2.98,0,0,1,2.976-2.976H88.828a2.98,2.98,0,0,1,2.976,2.976v4.325a2.98,2.98,0,0,1-2.976,2.976h-.5v6.685l7.3,20.048a5.29,5.29,0,0,1-4.97,7.1ZM78.6,152.666l-.119,7.681-7.564,20.341a1.5,1.5,0,0,0,1.407,2.024h18.34a1.5,1.5,0,0,0,1.41-2.014l-7.534-21.013V148.876h3.476v-2.7H75.124v2.7H80.2v3.79Z" transform="translate(-67.031 -142.388)" fill="#283e51"/>
        </g>
      </g>
      <g id="Group_1782" data-name="Group 1782" transform="translate(36.363 95.336)">
        <rect id="Rectangle_10559" data-name="Rectangle 10559" width="35.281" height="3.79" fill="#283e51"/>
      </g>
      <g id="Group_1783" data-name="Group 1783" transform="translate(49.682 112.016)">
        <rect id="Rectangle_10560" data-name="Rectangle 10560" width="19.683" height="3.79" fill="#283e51"/>
      </g>
      <g id="Group_1784" data-name="Group 1784" transform="translate(84.63 53.441)">
        <rect id="Rectangle_10561" data-name="Rectangle 10561" width="29.655" height="3.79" fill="#283e51"/>
      </g>
      <g id="Group_1785" data-name="Group 1785" transform="translate(48.383 140.591)">
        <path id="Path_1019" data-name="Path 1019" d="M82.329,181.964H76.763a8.433,8.433,0,0,1-8.408-8.408h0a8.433,8.433,0,0,1,8.408-8.411h5.566a8.433,8.433,0,0,1,8.408,8.411h0A8.433,8.433,0,0,1,82.329,181.964Z" transform="translate(-68.355 -165.145)" fill="#f5f5f5"/>
      </g>
      <g id="Group_1786" data-name="Group 1786" transform="translate(48.383 144.451)">
        <path id="Path_1020" data-name="Path 1020" d="M82.329,170.531H76.763a8.413,8.413,0,0,1-7.046-3.858,8.323,8.323,0,0,0-1.362,4.55,8.431,8.431,0,0,0,8.408,8.408h5.566a8.431,8.431,0,0,0,8.408-8.408,8.323,8.323,0,0,0-1.362-4.55A8.413,8.413,0,0,1,82.329,170.531Z" transform="translate(-68.355 -166.673)" fill="#17ac9d"/>
      </g>
      <g id="Group_1787" data-name="Group 1787" transform="translate(46.488 138.696)">
        <path id="Path_1021" data-name="Path 1021" d="M83.474,185H77.908a10.3,10.3,0,0,1,0-20.609h5.566a10.3,10.3,0,0,1,0,20.609Zm-5.566-16.819a6.515,6.515,0,0,0,0,13.029h5.566a6.515,6.515,0,0,0,0-13.029Z" transform="translate(-67.605 -164.395)" fill="#283e51"/>
      </g>
      <g id="Group_1788" data-name="Group 1788" transform="translate(57.344 129.638)">
        <path id="Path_1022" data-name="Path 1022" d="M76.361,165.186c0,2.418-1,4.378-2.228,4.378S71.9,167.6,71.9,165.186s2.231-4.376,2.231-4.376S76.361,162.768,76.361,165.186Z" transform="translate(-71.902 -160.81)" fill="#17ac9d"/>
      </g>
      <g id="Group_1789" data-name="Group 1789" transform="translate(55.449 127.114)">
        <path id="Path_1023" data-name="Path 1023" d="M75.278,172.984c-2.393,0-4.126-2.64-4.126-6.273,0-3.181,2.58-5.541,2.875-5.8l1.251-1.1,1.251,1.1c.293.26,2.873,2.62,2.873,5.8C79.4,170.344,77.668,172.984,75.278,172.984Zm0-7.552a2.948,2.948,0,0,0-.336,1.278,5.425,5.425,0,0,0,.336,1.991,5.489,5.489,0,0,0,.333-1.991A2.98,2.98,0,0,0,75.278,165.432Z" transform="translate(-71.152 -159.811)" fill="#283e51"/>
      </g>
    </g>
    <g id="Group_1791" data-name="Group 1791" transform="translate(209.993 188.72)" opacity="0.3">
      <path id="Path_1024" data-name="Path 1024" d="M234.917,117.585H95.215l7.4,91.482H227.519Z" transform="translate(-95.215 -117.585)" fill="#0565a2"/>
    </g>
    <g id="Group_1809" data-name="Group 1809" transform="translate(215.496 134.457)">
      <g id="Group_1808" data-name="Group 1808">
        <g id="Group_1792" data-name="Group 1792" transform="translate(1.895 1.895)">
          <path id="Path_1025" data-name="Path 1025" d="M223.049,264.708V104.3a7.444,7.444,0,0,0-7.443-7.446H105.589a7.444,7.444,0,0,0-7.446,7.446V264.71Z" transform="translate(-98.143 -96.858)" fill="#fff"/>
        </g>
        <g id="Group_1793" data-name="Group 1793" transform="translate(1.895 1.895)">
          <path id="Path_1026" data-name="Path 1026" d="M98.143,116.156V103.119a6.259,6.259,0,0,1,6.261-6.261H216.791a6.259,6.259,0,0,1,6.258,6.261v13.037Z" transform="translate(-98.143 -96.858)" fill="#f5f5f5"/>
        </g>
        <g id="Group_1794" data-name="Group 1794">
          <path id="Path_1027" data-name="Path 1027" d="M101.183,265.852h-3.79V104.264a8.165,8.165,0,0,1,8.156-8.156h16.584V99.9H105.549a4.37,4.37,0,0,0-4.366,4.366Z" transform="translate(-97.393 -96.108)" fill="#283e51"/>
        </g>
        <g id="Group_1795" data-name="Group 1795" transform="translate(46.44)">
          <path id="Path_1028" data-name="Path 1028" d="M198.03,265.852h-3.79V104.264a4.37,4.37,0,0,0-4.366-4.366h-74.1v-3.79h74.1a8.165,8.165,0,0,1,8.156,8.156Z" transform="translate(-115.774 -96.108)" fill="#283e51"/>
        </g>
        <g id="Group_1796" data-name="Group 1796" transform="translate(30.8 0.001)">
          <rect id="Rectangle_10562" data-name="Rectangle 10562" width="8.579" height="3.79" fill="#283e51"/>
        </g>
        <g id="Group_1797" data-name="Group 1797" transform="translate(1.895 19.636)">
          <rect id="Rectangle_10563" data-name="Rectangle 10563" width="124.906" height="3.79" fill="#283e51"/>
        </g>
        <g id="Group_1798" data-name="Group 1798" transform="translate(16.24 10.709)">
          <rect id="Rectangle_10564" data-name="Rectangle 10564" width="3.374" height="3.79" fill="#283e51"/>
        </g>
        <g id="Group_1799" data-name="Group 1799" transform="translate(26.187 10.709)">
          <rect id="Rectangle_10565" data-name="Rectangle 10565" width="3.374" height="3.79" fill="#283e51"/>
        </g>
        <g id="Group_1800" data-name="Group 1800" transform="translate(36.133 10.709)">
          <rect id="Rectangle_10566" data-name="Rectangle 10566" width="3.374" height="3.79" fill="#283e51"/>
        </g>
        <g id="Group_1801" data-name="Group 1801" transform="translate(11.695 104.652)">
          <rect id="Rectangle_10567" data-name="Rectangle 10567" width="27.803" height="36.067" fill="#f5f5f5"/>
        </g>
        <g id="Group_1802" data-name="Group 1802" transform="translate(50.457 104.652)">
          <rect id="Rectangle_10568" data-name="Rectangle 10568" width="27.802" height="36.067" fill="#f5f5f5"/>
        </g>
        <g id="Group_1803" data-name="Group 1803" transform="translate(89.564 104.652)">
          <rect id="Rectangle_10569" data-name="Rectangle 10569" width="27.802" height="36.067" fill="#17ac9d"/>
        </g>
        <g id="Group_1804" data-name="Group 1804" transform="translate(44.919 96.137)">
          <rect id="Rectangle_10570" data-name="Rectangle 10570" width="38.88" height="3.79" fill="#283e51"/>
        </g>
        <g id="Group_1805" data-name="Group 1805" transform="translate(11.695 32.894)">
          <rect id="Rectangle_10571" data-name="Rectangle 10571" width="105.672" height="59.187" fill="#f5f5f5"/>
        </g>
        <g id="Group_1806" data-name="Group 1806" transform="translate(11.695 52.953)">
          <path id="Path_1029" data-name="Path 1029" d="M207.694,117.067h-4.567l-6.686,4.458H181.581l-4.633,6.439-8.362,5.943-16.475.248-4.458-3.467-8.42,4.21H122.89l-16.322,14.859h-4.546v6.439H207.694Z" transform="translate(-102.022 -117.067)" fill="#17ac9d"/>
        </g>
        <g id="Group_1807" data-name="Group 1807" transform="translate(11.695 51.058)">
          <path id="Path_1030" data-name="Path 1030" d="M107.3,152.8h-5.277v-3.79h3.812l16.322-14.859h16.63l9.088-4.543,4.874,3.791,15.219-.229,7.625-5.418,5.016-6.972h15.256l6.686-4.457h5.141v3.79H203.7l-6.686,4.457H182.551l-4.505,6.089-8.842,6.284-17.731.267-4.04-3.142-7.751,3.875h-16.06Z" transform="translate(-102.022 -116.317)" fill="#283e51"/>
        </g>
      </g>
    </g>
    <g id="Group_1813" data-name="Group 1813" transform="translate(62.39 323.806)">
      <g id="Group_1810" data-name="Group 1810">
        <rect id="Rectangle_10572" data-name="Rectangle 10572" width="6.921" height="3.79" fill="#283e51"/>
      </g>
      <g id="Group_1811" data-name="Group 1811" transform="translate(429.375)">
        <rect id="Rectangle_10573" data-name="Rectangle 10573" width="15.284" height="3.79" fill="#283e51"/>
      </g>
      <g id="Group_1812" data-name="Group 1812" transform="translate(11.527)">
        <rect id="Rectangle_10574" data-name="Rectangle 10574" width="413.9" height="3.79" fill="#283e51"/>
      </g>
    </g>
  </g>
</svg>
